<svg width="482" height="353" viewBox="0 0 482 353" fill="none" xmlns="http://www.w3.org/2000/svg">
<path d="M177.764 0.5H480.809L422.062 118.113L401.286 67.2876H364.749L399.853 169.359L353.286 260.93L282.003 67.7076H243.316L274.48 161.798L196.032 163.058L159.853 64.7673L158.062 52.5859L158.42 37.8842L159.853 33.6838L177.764 0.5Z" fill="black" stroke="#00FFA6" stroke-opacity="0.1"/>
<path d="M303.853 352.5H0.808655L59.5549 234.887L80.3311 285.712H116.868L81.7639 183.641L128.331 92.0704L199.615 285.292H238.301L207.137 191.202L285.585 189.942L321.764 288.233L323.555 300.414L323.197 315.116L321.764 319.316L303.853 352.5Z" fill="black" stroke="#00FFA6" stroke-opacity="0.1"/>
</svg>
